<?xml version="1.0" encoding="UTF-8"?>
<!DOCTYPE svg PUBLIC "-//W3C//DTD SVG 1.1//EN" "http://www.w3.org/Graphics/SVG/1.1/DTD/svg11.dtd">
<svg xmlns="http://www.w3.org/2000/svg" version="1.1" width="418px" height="596px" style="shape-rendering:geometricPrecision; text-rendering:geometricPrecision; image-rendering:optimizeQuality; fill-rule:evenodd; clip-rule:evenodd" xmlns:xlink="http://www.w3.org/1999/xlink">
<g><path style="opacity:0.979" fill="#FFFFFF" d="M 182.5,-0.5 C 194.833,-0.5 207.167,-0.5 219.5,-0.5C 230.674,1.93821 241.841,4.93821 253,8.5C 275.312,3.11883 296.812,5.11883 317.5,14.5C 317.821,16.0481 318.821,16.7148 320.5,16.5C 335.446,26.6624 345.279,40.6624 350,58.5C 356.879,65.0625 362.712,72.5625 367.5,81C 375.726,84.2785 384.059,87.2785 392.5,90C 410.247,99.5707 415.08,113.737 407,132.5C 402.048,138.57 398.548,145.403 396.5,153C 397.388,156.914 399.555,160.081 403,162.5C 406.729,167.486 408.562,173.152 408.5,179.5C 407.883,179.611 407.383,179.944 407,180.5C 406.505,182.473 406.338,184.473 406.5,186.5C 405.279,191.881 402.612,196.381 398.5,200C 392.689,202.6 386.689,204.767 380.5,206.5C 378.576,206.711 378.243,207.377 379.5,208.5C 381.576,211.08 382.909,214.08 383.5,217.5C 380.768,229.642 377.434,241.642 373.5,253.5C 374.851,257.525 376.184,261.525 377.5,265.5C 377.427,267.027 378.094,268.027 379.5,268.5C 386.833,285.31 386,301.644 377,317.5C 372.92,320.457 368.753,323.29 364.5,326C 368.993,334.194 368.493,342.028 363,349.5C 362.333,352.5 362.333,355.5 363,358.5C 367.376,369.754 370.542,381.088 372.5,392.5C 372.975,401.654 371.475,410.654 368,419.5C 366.811,421.233 365.644,422.9 364.5,424.5C 362.241,425.344 361.241,427.011 361.5,429.5C 358.919,432.354 357.252,435.354 356.5,438.5C 370.194,442.353 383.86,446.187 397.5,450C 401.078,451.286 404.244,453.12 407,455.5C 409.825,487.981 412.492,520.648 415,553.5C 415.68,558.336 416.514,563.003 417.5,567.5C 417.5,576.833 417.5,586.167 417.5,595.5C 338.167,595.5 258.833,595.5 179.5,595.5C 179.369,594.761 179.536,594.094 180,593.5C 206.189,572.504 232.022,551.17 257.5,529.5C 254.079,525.596 249.912,522.596 245,520.5C 238.307,525.839 230.807,527.339 222.5,525C 207.92,517.918 192.586,513.251 176.5,511C 169.995,508.583 163.995,505.417 158.5,501.5C 158.027,500.094 157.027,499.427 155.5,499.5C 148.295,493.308 141.795,486.308 136,478.5C 127.84,462.968 119.506,447.635 111,432.5C 110.333,429.5 110.333,426.5 111,423.5C 111.645,422.354 112.478,421.354 113.5,420.5C 110.176,417.006 107.009,413.339 104,409.5C 102.905,404.554 102.071,399.554 101.5,394.5C 102.223,385.165 103.056,375.831 104,366.5C 105.185,362.628 107.019,359.128 109.5,356C 107.544,356.222 105.71,357.055 104,358.5C 102.092,361.215 100.759,364.215 100,367.5C 99.1971,375.882 99.3638,384.215 100.5,392.5C 99.3052,395.609 97.3052,398.109 94.5,400C 63.7514,417.446 32.5847,433.946 1,449.5C 0.617425,448.944 0.117425,448.611 -0.5,448.5C -0.5,447.167 -0.5,445.833 -0.5,444.5C 7.04527,440.312 14.3786,435.645 21.5,430.5C 18.452,427.748 15.2854,425.081 12,422.5C 9.75363,418.766 8.08696,414.766 7,410.5C 4.70976,398.735 5.04309,387.069 8,375.5C 9.66499,372.349 11.4983,369.349 13.5,366.5C 15.0481,366.179 15.7148,365.179 15.5,363.5C 18.8483,359.153 22.8483,355.486 27.5,352.5C 28.8333,351.833 29.8333,350.833 30.5,349.5C 32.0269,349.573 33.0269,348.906 33.5,347.5C 36.5978,345.108 39.9311,342.942 43.5,341C 45.5938,339.745 46.5938,337.912 46.5,335.5C 44.1177,328.933 40.2844,323.267 35,318.5C 27.9539,307.703 23.4539,295.87 21.5,283C 23.9428,268.991 29.1095,256.158 37,244.5C 42.1986,233.711 44.1986,222.378 43,210.5C 38.2027,200.105 34.2027,189.439 31,178.5C 30.3333,171.833 30.3333,165.167 31,158.5C 37.0711,142.358 45.2378,127.358 55.5,113.5C 52.8749,101.869 53.0415,90.2022 56,78.5C 57.375,74.8359 59.2084,71.5026 61.5,68.5C 63.2554,67.9278 64.9221,67.0945 66.5,66C 65.944,65.6174 65.6107,65.1174 65.5,64.5C 71.213,58.6371 78.213,54.8038 86.5,53C 95.2568,52.1735 103.923,50.8401 112.5,49C 127.944,21.3963 151.277,4.89625 182.5,-0.5 Z M 244.5,52.5 C 244.973,53.9063 245.973,54.573 247.5,54.5C 249.599,55.5171 250.599,56.8505 250.5,58.5C 232.085,50.0136 212.752,44.6803 192.5,42.5C 200.914,41.3411 209.081,41.3411 217,42.5C 226.64,44.9201 235.807,48.2534 244.5,52.5 Z M 227.5,92.5 C 226.486,91.3263 225.153,90.6596 223.5,90.5C 221.574,89.5139 219.574,88.5139 217.5,87.5C 204.65,80.5889 190.984,75.5889 176.5,72.5C 164.065,76.6102 151.399,80.1102 138.5,83C 133.348,83.1791 128.348,84.0124 123.5,85.5C 123.281,84.325 123.614,83.325 124.5,82.5C 134.771,78.3588 145.104,74.6921 155.5,71.5C 157.153,71.3404 158.486,70.6737 159.5,69.5C 169.465,65.3587 179.799,64.5253 190.5,67C 208.061,73.756 225.061,81.5894 241.5,90.5C 246.767,94.0862 249.934,99.0862 251,105.5C 252.204,114.144 251.204,122.477 248,130.5C 247.333,129.167 246.667,127.833 246,126.5C 245.893,118.409 244.893,110.742 243,103.5C 239.12,98.0246 233.954,94.3579 227.5,92.5 Z M 354.5,93.5 C 349.085,89.6032 343.751,85.4365 338.5,81C 327.321,73.2949 315.321,71.6282 302.5,76C 300.627,77.7038 298.96,79.5372 297.5,81.5C 296.599,82.2905 295.932,83.2905 295.5,84.5C 295.366,93.7735 291.366,100.774 283.5,105.5C 283.167,105.333 282.833,105.167 282.5,105C 286.921,97.7377 289.754,89.9044 291,81.5C 293.906,73.7853 299.406,68.952 307.5,67C 329.361,64.8943 345.027,73.7277 354.5,93.5 Z M 162.5,118.5 C 161.076,120.515 160.41,122.848 160.5,125.5C 157.819,134.007 151.986,138.673 143,139.5C 134.706,140.084 126.873,138.25 119.5,134C 113.42,129.246 107.087,124.913 100.5,121C 90.8081,120.063 81.1415,119.063 71.5,118C 80.8518,112.958 90.5185,111.625 100.5,114C 109.908,118.072 118.241,123.739 125.5,131C 142.83,138.835 153.83,133.502 158.5,115C 160.667,110.912 164,108.245 168.5,107C 172.592,106.049 176.426,105.215 180,104.5C 180.5,105 181,105.5 181.5,106C 188.509,105.911 194.509,108.245 199.5,113C 207.667,120 215.334,127.5 222.5,135.5C 222.167,135.833 221.833,136.167 221.5,136.5C 212.939,133.11 205.605,127.943 199.5,121C 189.378,112.32 178.044,110.32 165.5,115C 164.29,116.039 163.29,117.206 162.5,118.5 Z M 320.5,117.5 C 325.844,117.334 331.177,117.501 336.5,118C 345.852,121.783 355.019,125.95 364,130.5C 370.654,128.695 377.488,127.695 384.5,127.5C 386.5,127.833 388.5,128.167 390.5,128.5C 381.165,133.259 371.165,135.426 360.5,135C 352.315,132.051 344.315,128.718 336.5,125C 326.164,121.488 317.164,123.488 309.5,131C 302.426,140.426 293.426,147.093 282.5,151C 270.097,154.094 258.431,152.427 247.5,146C 259.441,147.934 271.441,147.934 283.5,146C 287.772,143.726 291.772,141.059 295.5,138C 301.94,128.79 310.273,121.957 320.5,117.5 Z M 40.5,179.5 C 39.5104,173.69 39.1771,167.69 39.5,161.5C 40.588,159.484 41.588,157.317 42.5,155C 44.0381,152.966 45.7047,151.133 47.5,149.5C 55.5975,144.193 64.2642,143.36 73.5,147C 80.8781,151.139 88.2114,155.473 95.5,160C 111.91,164.038 127.577,170.038 142.5,178C 147.997,178.949 153.331,180.282 158.5,182C 155.51,182.897 152.51,183.731 149.5,184.5C 139.164,182.331 129.497,178.498 120.5,173C 111.476,170.827 102.476,168.494 93.5,166C 86.2378,160.916 78.5711,156.583 70.5,153C 49.0962,148.542 39.0962,157.376 40.5,179.5 Z M 288.5,180.5 C 291.219,181.913 294.219,182.58 297.5,182.5C 307.817,185.426 318.483,186.926 329.5,187C 319.27,191.612 310.27,197.946 302.5,206C 299.599,206.875 296.932,208.042 294.5,209.5C 279.286,213.24 264.286,217.573 249.5,222.5C 246.752,221.961 244.085,221.128 241.5,220C 234.047,214.94 226.047,210.94 217.5,208C 209.723,205.11 201.723,203.777 193.5,204C 192.167,204.667 192.167,205.333 193.5,206C 202.59,208.379 211.59,211.046 220.5,214C 229.631,218.649 238.798,223.149 248,227.5C 260.547,224.873 272.713,221.04 284.5,216C 290.224,214.432 295.89,213.266 301.5,212.5C 310.833,211.167 320.167,211.167 329.5,212.5C 335.103,214.431 339.103,218.264 341.5,224C 324.146,224.338 306.813,226.005 289.5,229C 282.649,230.861 275.982,233.027 269.5,235.5C 267.973,235.427 266.973,236.094 266.5,237.5C 260.492,241.497 256.992,247.164 256,254.5C 254.874,277.316 254.04,300.15 253.5,323C 254.232,327.616 253.399,332.116 251,336.5C 245.765,340.659 240.765,340.326 236,335.5C 235.198,330.581 235.365,325.748 236.5,321C 235.975,320.308 235.308,319.808 234.5,319.5C 232.779,322.221 230.446,324.221 227.5,325.5C 221.09,323.691 214.756,322.025 208.5,320.5C 207.766,319.292 207.433,317.959 207.5,316.5C 209.891,312.922 212.558,309.422 215.5,306C 214.351,304.256 213.017,304.089 211.5,305.5C 210.281,306.646 208.948,307.646 207.5,308.5C 205,312.821 202.333,316.988 199.5,321C 191.173,325.496 183.173,330.496 175.5,336C 168.648,342.353 161.648,348.519 154.5,354.5C 154.167,354.167 153.833,353.833 153.5,353.5C 154.919,351.664 156.086,349.664 157,347.5C 162.957,342.842 168.29,337.509 173,331.5C 173.658,327.428 173.325,323.428 172,319.5C 169.634,315.964 167.467,312.297 165.5,308.5C 164.675,307.614 163.675,307.281 162.5,307.5C 163.095,318.725 158.428,326.892 148.5,332C 144.659,335.508 141.159,339.341 138,343.5C 137.333,345.5 136.667,347.5 136,349.5C 134.91,362.176 133.743,374.843 132.5,387.5C 131.747,392.589 129.247,396.589 125,399.5C 127.782,386.418 129.116,373.084 129,359.5C 129.4,350.425 132.4,342.425 138,335.5C 145.046,330.787 150.713,324.787 155,317.5C 155.914,311.97 155.247,306.637 153,301.5C 147.014,290.865 141.014,280.199 135,269.5C 131.836,255.66 132.503,241.993 137,228.5C 149.694,210.434 162.028,192.101 174,173.5C 178.134,168.036 183.634,165.203 190.5,165C 202.616,163.828 214.45,164.994 226,168.5C 231.727,168.458 237.394,168.458 243,168.5C 247.743,166.361 252.577,164.861 257.5,164C 265.847,173.17 276.181,178.67 288.5,180.5 Z M 89.5,230.5 C 89.9321,231.71 90.5987,232.71 91.5,233.5C 95.6106,242.223 100.611,250.39 106.5,258C 108.025,259.009 109.692,259.509 111.5,259.5C 111.5,258.5 111.5,257.5 111.5,256.5C 111.59,253.848 110.924,251.515 109.5,249.5C 103.595,235.242 107.928,230.409 122.5,235C 123.059,235.725 123.392,236.558 123.5,237.5C 116.613,251.454 113.113,266.121 113,281.5C 111.546,286.527 110.046,291.527 108.5,296.5C 101.633,281.1 93.9665,266.1 85.5,251.5C 85.3404,249.847 84.6737,248.514 83.5,247.5C 77.2022,235.609 72.8689,222.942 70.5,209.5C 70.5141,206.096 71.8475,203.43 74.5,201.5C 85.3989,200.521 95.0656,203.688 103.5,211C 98.5,211.333 93.5,211.667 88.5,212C 83.9858,214.466 82.4858,218.299 84,223.5C 86.0478,225.709 87.8811,228.042 89.5,230.5 Z M 49.5,219.5 C 50.4142,226.912 51.4142,234.412 52.5,242C 52.1667,242.333 51.8333,242.667 51.5,243C 53.2363,251.048 53.7363,259.215 53,267.5C 46.6829,276.146 40.0163,284.48 33,292.5C 32.6293,288.35 33.2959,284.35 35,280.5C 40.0881,275.749 44.4215,270.415 48,264.5C 49.3964,249.544 49.8964,234.544 49.5,219.5 Z M 322.5,287.5 C 321.094,287.973 320.427,288.973 320.5,290.5C 318.037,292.461 315.703,294.628 313.5,297C 312.552,297.483 311.552,297.649 310.5,297.5C 310.335,294.482 310.502,291.482 311,288.5C 320.86,282.441 327.027,273.774 329.5,262.5C 329.833,263.333 330.167,264.167 330.5,265C 329.425,273.173 326.758,280.673 322.5,287.5 Z M 265.5,309.5 C 265.5,310.833 266.167,311.5 267.5,311.5C 269.151,312.97 270.985,314.303 273,315.5C 274.602,317.369 275.602,319.369 276,321.5C 271.035,323.43 265.868,324.43 260.5,324.5C 260.716,306.474 261.549,288.474 263,270.5C 264.163,272.285 264.83,274.285 265,276.5C 265.5,287.495 265.667,298.495 265.5,309.5 Z M 77.5,279.5 C 78.2389,279.369 78.9056,279.536 79.5,280C 76.8626,287.286 72.6959,293.452 67,298.5C 69.5251,294.597 72.1917,290.597 75,286.5C 75.7436,284.1 76.5769,281.767 77.5,279.5 Z M 120.5,305.5 C 121.675,305.281 122.675,305.614 123.5,306.5C 109.27,313.594 102.103,325.26 102,341.5C 98.1534,323.996 104.32,311.996 120.5,305.5 Z M 203.5,330.5 C 210.663,330.479 217.663,331.979 224.5,335C 220.826,340.17 215.826,342.67 209.5,342.5C 209.67,341.178 209.337,340.011 208.5,339C 205.036,338.183 201.702,338.517 198.5,340C 195.167,344 191.833,348 188.5,352C 182.659,354.965 176.659,357.631 170.5,360C 169.696,361.771 168.529,363.271 167,364.5C 164.047,372.313 161.713,380.313 160,388.5C 152.839,399.14 144.506,408.806 135,417.5C 132.959,429.718 133.125,441.885 135.5,454C 135.333,454.833 135.167,455.667 135,456.5C 132.039,452.91 129.872,448.91 128.5,444.5C 128.981,441.917 129.648,439.417 130.5,437C 129.838,429.639 129.671,422.139 130,414.5C 138.035,406.467 145.702,398.133 153,389.5C 156.053,378.62 159.72,367.953 164,357.5C 168.75,351.345 174.917,347.178 182.5,345C 188.553,338.653 195.553,333.819 203.5,330.5 Z M 326.5,446.5 C 325.655,447.671 324.989,449.005 324.5,450.5C 324.525,440.03 324.359,429.364 324,418.5C 323.333,416.5 322.667,414.5 322,412.5C 316.815,404.796 312.148,396.796 308,388.5C 305.511,380.211 303.178,371.878 301,363.5C 295.329,356.237 288.496,350.237 280.5,345.5C 279.432,344.566 278.099,344.232 276.5,344.5C 276.232,346.099 276.566,347.432 277.5,348.5C 278.337,351.852 279.837,354.852 282,357.5C 282.837,359.821 283.17,362.155 283,364.5C 274.244,356.263 267.744,346.597 263.5,335.5C 264.438,334.447 265.605,333.78 267,333.5C 284.579,336.105 297.579,345.105 306,360.5C 308.974,369.062 311.641,377.729 314,386.5C 318.602,394.46 323.269,402.46 328,410.5C 329.521,422.506 329.021,434.506 326.5,446.5 Z M 24.5,384.5 C 22.9731,384.427 21.9731,385.094 21.5,386.5C 18.6995,389.408 16.3661,392.742 14.5,396.5C 14.1667,396.5 13.8333,396.5 13.5,396.5C 15.1683,387 20.1683,379.833 28.5,375C 39.1834,372.746 49.5167,369.413 59.5,365C 65.9599,360.374 71.9599,355.207 77.5,349.5C 77.8333,349.833 78.1667,350.167 78.5,350.5C 73.6128,358.624 67.2794,365.458 59.5,371C 47.6308,375.047 35.9641,379.547 24.5,384.5 Z M 230.5,362.5 C 237.674,362.012 244.674,362.845 251.5,365C 255.738,367.844 255.404,369.844 250.5,371C 239.495,371.945 228.495,372.945 217.5,374C 216.376,374.249 215.376,374.749 214.5,375.5C 213.882,383.997 212.382,392.331 210,400.5C 203.955,408.046 197.121,414.713 189.5,420.5C 185.272,427.907 183.772,435.907 185,444.5C 187.631,454.211 190.131,463.878 192.5,473.5C 192.468,482.431 192.302,491.431 192,500.5C 190.748,498.999 189.748,497.332 189,495.5C 185.683,478.896 182.683,462.229 180,445.5C 178.206,434.686 180.206,424.686 186,415.5C 192.594,411.204 198.594,406.204 204,400.5C 205.739,391.121 207.739,381.788 210,372.5C 215.676,366.578 222.509,363.244 230.5,362.5 Z M 239.5,452.5 C 238.833,452.5 238.5,452.167 238.5,451.5C 242.728,444.032 244.228,436.032 243,427.5C 242.338,426.016 241.504,424.683 240.5,423.5C 240.771,421.62 240.104,420.287 238.5,419.5C 236.16,414.969 233.994,410.303 232,405.5C 231.333,401.833 231.333,398.167 232,394.5C 236.199,404.374 240.866,414.04 246,423.5C 247.492,428.411 247.826,433.411 247,438.5C 244.727,443.384 242.227,448.051 239.5,452.5 Z M 265.5,501.5 C 249.98,489.847 245.814,474.847 253,456.5C 257.24,451.683 261.24,446.683 265,441.5C 268.228,435.185 268.228,428.852 265,422.5C 261.404,417.564 257.404,412.897 253,408.5C 252.251,407.365 252.417,406.365 253.5,405.5C 264.049,411.703 270.715,420.703 273.5,432.5C 272.77,435.109 272.27,437.776 272,440.5C 267.719,447.115 263.053,453.448 258,459.5C 254.192,466.862 253.525,474.529 256,482.5C 258.511,489.224 261.677,495.557 265.5,501.5 Z M 289.5,410.5 C 293.704,412.033 297.037,414.7 299.5,418.5C 299.989,419.995 300.655,421.329 301.5,422.5C 301.5,422.833 301.5,423.167 301.5,423.5C 301.833,426.167 302.167,428.833 302.5,431.5C 302.423,437.718 301.256,443.718 299,449.5C 294.371,455.797 289.038,461.463 283,466.5C 278.677,473.188 277.344,480.521 279,488.5C 280.277,493.493 281.444,498.493 282.5,503.5C 281.5,502.833 280.5,502.167 279.5,501.5C 276.725,495.742 274.558,489.742 273,483.5C 271.873,475.746 273.706,468.746 278.5,462.5C 285.522,457.645 291.355,451.645 296,444.5C 296.667,437.5 296.667,430.5 296,423.5C 293.802,419.105 291.636,414.771 289.5,410.5 Z M 219.5,426.5 C 218.167,427.167 217.167,428.167 216.5,429.5C 215.167,430.167 214.167,431.167 213.5,432.5C 206.449,439.45 204.615,447.783 208,457.5C 211.275,463.731 215.275,469.397 220,474.5C 225.831,486.428 225.831,498.428 220,510.5C 219.753,501.797 219.086,493.13 218,484.5C 215.079,477.743 211.413,471.409 207,465.5C 204.525,458.934 202.359,452.268 200.5,445.5C 201.144,441.981 202.31,438.647 204,435.5C 211.37,427.954 218.537,420.954 225.5,414.5C 225.08,419.339 223.08,423.339 219.5,426.5 Z M 161.5,439.5 C 162.485,443.634 162.818,447.968 162.5,452.5C 158.527,466.112 159.194,479.445 164.5,492.5C 163.833,492.167 163.167,491.833 162.5,491.5C 155.968,479.613 154.135,466.946 157,453.5C 157.973,448.218 159.473,443.551 161.5,439.5 Z"/></g>
<g><path style="opacity:0.235" fill="#FFFFFF" d="M 317.5,14.5 C 318.71,14.9321 319.71,15.5987 320.5,16.5C 318.821,16.7148 317.821,16.0481 317.5,14.5 Z"/></g>
<g><path style="opacity:0.035" fill="#FFFFFF" d="M 244.5,52.5 C 246.027,52.427 247.027,53.0937 247.5,54.5C 245.973,54.573 244.973,53.9063 244.5,52.5 Z"/></g>
<g><path style="opacity:0.533" fill="#FFFFFF" d="M 65.5,64.5 C 65.6107,65.1174 65.944,65.6174 66.5,66C 64.9221,67.0945 63.2554,67.9278 61.5,68.5C 62.5,66.8333 63.8333,65.5 65.5,64.5 Z"/></g>
<g><path style="opacity:0.004" fill="#FFFFFF" d="M 159.5,69.5 C 158.486,70.6737 157.153,71.3404 155.5,71.5C 156.287,69.8958 157.62,69.2291 159.5,69.5 Z"/></g>
<g><path style="opacity:0.153" fill="#FFFFFF" d="M 297.5,81.5 C 297.715,83.1788 297.048,84.1788 295.5,84.5C 295.932,83.2905 296.599,82.2905 297.5,81.5 Z"/></g>
<g><path style="opacity:0.218" fill="#FFFFFF" d="M 217.5,87.5 C 219.574,88.5139 221.574,89.5139 223.5,90.5C 220.607,90.9689 218.607,89.9689 217.5,87.5 Z"/></g>
<g><path style="opacity:0.024" fill="#FFFFFF" d="M 223.5,90.5 C 225.153,90.6596 226.486,91.3263 227.5,92.5C 225.62,92.7709 224.287,92.1042 223.5,90.5 Z"/></g>
<g><path style="opacity:0.114" fill="#FFFFFF" d="M 162.5,118.5 C 162.59,121.152 161.924,123.485 160.5,125.5C 160.41,122.848 161.076,120.515 162.5,118.5 Z"/></g>
<g><path style="opacity:0.691" fill="#FFFFFF" d="M 47.5,149.5 C 45.7047,151.133 44.0381,152.966 42.5,155C 41.588,157.317 40.588,159.484 39.5,161.5C 39.9279,155.924 41.7613,151.591 45,148.5C 45.6708,149.252 46.5041,149.586 47.5,149.5 Z"/></g>
<g><path style="opacity:0.363" fill="#FFFFFF" d="M 297.5,182.5 C 294.219,182.58 291.219,181.913 288.5,180.5C 291.982,178.979 294.982,179.646 297.5,182.5 Z"/></g>
<g><path style="opacity:0.155" fill="#FFFFFF" d="M 408.5,179.5 C 408.073,182.01 407.407,184.343 406.5,186.5C 406.338,184.473 406.505,182.473 407,180.5C 407.383,179.944 407.883,179.611 408.5,179.5 Z"/></g>
<g><path style="opacity:0.02" fill="#FFFFFF" d="M 380.5,206.5 C 380.167,207.167 379.833,207.833 379.5,208.5C 378.243,207.377 378.576,206.711 380.5,206.5 Z"/></g>
<g><path style="opacity:0.124" fill="#FFFFFF" d="M 329.5,212.5 C 320.167,211.167 310.833,211.167 301.5,212.5C 302.263,211.732 303.263,211.232 304.5,211C 311.833,210.333 319.167,210.333 326.5,211C 327.737,211.232 328.737,211.732 329.5,212.5 Z"/></g>
<g><path style="opacity:0.688" fill="#FFFFFF" d="M 294.5,209.5 C 294.414,210.496 294.748,211.329 295.5,212C 297.473,212.495 299.473,212.662 301.5,212.5C 295.89,213.266 290.224,214.432 284.5,216C 272.713,221.04 260.547,224.873 248,227.5C 238.798,223.149 229.631,218.649 220.5,214C 211.59,211.046 202.59,208.379 193.5,206C 192.167,205.333 192.167,204.667 193.5,204C 201.723,203.777 209.723,205.11 217.5,208C 226.047,210.94 234.047,214.94 241.5,220C 244.085,221.128 246.752,221.961 249.5,222.5C 264.286,217.573 279.286,213.24 294.5,209.5 Z"/></g>
<g><path style="opacity:0.951" fill="#FFFFFF" d="M 230.5,235.5 C 230.5,236.833 231.167,237.5 232.5,237.5C 234.746,239.649 236.246,242.316 237,245.5C 237.179,256.41 237.679,267.243 238.5,278C 237.953,278.925 237.287,279.758 236.5,280.5C 235.106,271.755 234.44,263.088 234.5,254.5C 234.289,252.576 233.623,252.243 232.5,253.5C 225.745,261.238 217.745,267.571 208.5,272.5C 207.914,272.291 207.414,271.957 207,271.5C 197.071,274.284 187.237,273.45 177.5,269C 175.457,266.991 173.457,264.991 171.5,263C 179.84,262.519 188.173,262.019 196.5,261.5C 199.167,260.5 199.167,259.5 196.5,258.5C 183.358,256.249 170.025,254.749 156.5,254C 154.027,252.598 154.027,251.098 156.5,249.5C 157.086,249.709 157.586,250.043 158,250.5C 161.746,249.141 165.579,247.974 169.5,247C 170.91,246.632 171.91,245.799 172.5,244.5C 165.51,242.263 158.843,239.429 152.5,236C 147.167,232.333 147.167,228.667 152.5,225C 155.139,223.054 158.139,222.054 161.5,222C 185.856,219.962 208.856,224.462 230.5,235.5 Z"/></g>
<g><path style="opacity:0.133" fill="#FFFFFF" d="M 89.5,230.5 C 91.0481,230.821 91.7148,231.821 91.5,233.5C 90.5987,232.71 89.9321,231.71 89.5,230.5 Z"/></g>
<g><path style="opacity:0.118" fill="#FFFFFF" d="M 230.5,235.5 C 231.5,235.833 232.167,236.5 232.5,237.5C 231.167,237.5 230.5,236.833 230.5,235.5 Z"/></g>
<g><path style="opacity:0.224" fill="#FFFFFF" d="M 269.5,235.5 C 269.027,236.906 268.027,237.573 266.5,237.5C 266.973,236.094 267.973,235.427 269.5,235.5 Z"/></g>
<g><path style="opacity:0.035" fill="#FFFFFF" d="M 83.5,247.5 C 84.6737,248.514 85.3404,249.847 85.5,251.5C 83.8958,250.713 83.2291,249.38 83.5,247.5 Z"/></g>
<g><path style="opacity:0.176" fill="#FFFFFF" d="M 109.5,249.5 C 110.924,251.515 111.59,253.848 111.5,256.5C 110.076,254.485 109.41,252.152 109.5,249.5 Z"/></g>
<g><path style="opacity:0.008" fill="#FFFFFF" d="M 232.5,253.5 C 233.623,252.243 234.289,252.576 234.5,254.5C 233.833,254.167 233.167,253.833 232.5,253.5 Z"/></g>
<g><path style="opacity:0.027" fill="#FFFFFF" d="M 196.5,258.5 C 199.167,259.5 199.167,260.5 196.5,261.5C 197.833,260.5 197.833,259.5 196.5,258.5 Z"/></g>
<g><path style="opacity:0.141" fill="#FFFFFF" d="M 377.5,265.5 C 378.906,265.973 379.573,266.973 379.5,268.5C 378.094,268.027 377.427,267.027 377.5,265.5 Z"/></g>
<g><path style="opacity:0.012" fill="#FFFFFF" d="M 80.5,272.5 C 81.4511,273.919 81.7845,275.585 81.5,277.5C 80.448,277.649 79.448,277.483 78.5,277C 80.0368,275.89 80.7035,274.39 80.5,272.5 Z"/></g>
<g><path style="opacity:0.157" fill="#FFFFFF" d="M 322.5,287.5 C 322.573,289.027 321.906,290.027 320.5,290.5C 320.427,288.973 321.094,287.973 322.5,287.5 Z"/></g>
<g><path style="opacity:0.004" fill="#FFFFFF" d="M 265.5,309.5 C 266.5,309.833 267.167,310.5 267.5,311.5C 266.167,311.5 265.5,310.833 265.5,309.5 Z"/></g>
<g><path style="opacity:0.086" fill="#FFFFFF" d="M 207.5,316.5 C 207.433,317.959 207.766,319.292 208.5,320.5C 207.351,320.209 206.684,319.376 206.5,318C 206.481,316.208 206.814,315.708 207.5,316.5 Z"/></g>
<g><path style="opacity:0.106" fill="#FFFFFF" d="M 280.5,345.5 C 279.5,345.5 278.5,345.5 277.5,345.5C 277.5,346.5 277.5,347.5 277.5,348.5C 276.566,347.432 276.232,346.099 276.5,344.5C 278.099,344.232 279.432,344.566 280.5,345.5 Z"/></g>
<g><path style="opacity:0.145" fill="#FFFFFF" d="M 33.5,347.5 C 33.0269,348.906 32.0269,349.573 30.5,349.5C 30.9731,348.094 31.9731,347.427 33.5,347.5 Z"/></g>
<g><path style="opacity:0.102" fill="#FFFFFF" d="M 30.5,349.5 C 29.8333,350.833 28.8333,351.833 27.5,352.5C 27.5,350.5 28.5,349.5 30.5,349.5 Z"/></g>
<g><path style="opacity:0.118" fill="#FFFFFF" d="M 15.5,363.5 C 15.7148,365.179 15.0481,366.179 13.5,366.5C 13.9321,365.29 14.5987,364.29 15.5,363.5 Z"/></g>
<g><path style="opacity:0.02" fill="#FFFFFF" d="M 24.5,384.5 C 24.0269,385.906 23.0269,386.573 21.5,386.5C 21.9731,385.094 22.9731,384.427 24.5,384.5 Z"/></g>
<g><path style="opacity:0.016" fill="#FFFFFF" d="M 13.5,396.5 C 13.8333,396.5 14.1667,396.5 14.5,396.5C 12.8049,402.992 12.4716,402.992 13.5,396.5 Z"/></g>
<g><path style="opacity:0.047" fill="#FFFFFF" d="M 299.5,418.5 C 301.176,419.183 301.843,420.517 301.5,422.5C 300.655,421.329 299.989,419.995 299.5,418.5 Z"/></g>
<g><path style="opacity:0.016" fill="#FFFFFF" d="M 238.5,419.5 C 240.104,420.287 240.771,421.62 240.5,423.5C 239.326,422.486 238.66,421.153 238.5,419.5 Z"/></g>
<g><path style="opacity:0.478" fill="#FFFFFF" d="M 364.5,424.5 C 363.89,426.434 362.89,428.101 361.5,429.5C 361.241,427.011 362.241,425.344 364.5,424.5 Z"/></g>
<g><path style="opacity:0.22" fill="#FFFFFF" d="M 219.5,426.5 C 219.5,428.5 218.5,429.5 216.5,429.5C 217.167,428.167 218.167,427.167 219.5,426.5 Z"/></g>
<g><path style="opacity:0.012" fill="#FFFFFF" d="M 301.5,423.5 C 303.413,426.04 303.746,428.707 302.5,431.5C 302.167,428.833 301.833,426.167 301.5,423.5 Z"/></g>
<g><path style="opacity:0.212" fill="#FFFFFF" d="M 216.5,429.5 C 216.5,431.5 215.5,432.5 213.5,432.5C 214.167,431.167 215.167,430.167 216.5,429.5 Z"/></g>
<g><path style="opacity:0.008" fill="#FFFFFF" d="M 161.5,439.5 C 161.56,438.957 161.893,438.624 162.5,438.5C 163.812,443.318 163.812,447.985 162.5,452.5C 162.818,447.968 162.485,443.634 161.5,439.5 Z"/></g>
<g><path style="opacity:0.4" fill="#FFFFFF" d="M 326.5,446.5 C 326.843,448.483 326.176,449.817 324.5,450.5C 324.989,449.005 325.655,447.671 326.5,446.5 Z"/></g>
<g><path style="opacity:0.012" fill="#FFFFFF" d="M 238.5,451.5 C 238.5,452.167 238.833,452.5 239.5,452.5C 239.217,453.289 238.717,453.956 238,454.5C 237.26,453.251 237.427,452.251 238.5,451.5 Z"/></g>
<g><path style="opacity:0.851" fill="#FFFFFF" d="M 55.5,471.5 C 57.0894,470.379 58.7561,470.546 60.5,472C 82.1005,490.442 105.434,506.275 130.5,519.5C 131.614,520.723 131.781,522.056 131,523.5C 106.503,515.338 84.67,502.671 65.5,485.5C 61.7047,481.058 58.3714,476.391 55.5,471.5 Z"/></g>
<g><path style="opacity:0.027" fill="#FFFFFF" d="M 162.5,491.5 C 163.167,491.833 163.833,492.167 164.5,492.5C 165.209,493.404 166.209,493.737 167.5,493.5C 167.649,494.552 167.483,495.552 167,496.5C 164.94,495.239 163.44,493.572 162.5,491.5 Z"/></g>
<g><path style="opacity:0.024" fill="#FFFFFF" d="M 155.5,499.5 C 157.027,499.427 158.027,500.094 158.5,501.5C 156.973,501.573 155.973,500.906 155.5,499.5 Z"/></g>
<g><path style="opacity:0.165" fill="#FFFFFF" d="M 279.5,501.5 C 280.5,502.167 281.5,502.833 282.5,503.5C 283.573,504.251 283.74,505.251 283,506.5C 281.351,505.115 280.184,503.449 279.5,501.5 Z"/></g>
</svg>
